<svg width="16" height="16" viewBox="0 0 16 16" fill="none" xmlns="http://www.w3.org/2000/svg">
  <path d="M6 2.5H10C10.5523 2.5 11 2.94772 11 3.5V4H13C13.2761 4 13.5 4.22386 13.5 4.5C13.5 4.77614 13.2761 5 13 5H12.4142L11.7071 13.4853C11.6638 14.0054 11.229 14.4 10.7071 14.4H5.29289C4.77097 14.4 4.3362 14.0054 4.29289 13.4853L3.58579 5H3C2.72386 5 2.5 4.77614 2.5 4.5C2.5 4.22386 2.72386 4 3 4H5V3.5C5 2.94772 5.44772 2.5 6 2.5ZM6 4H10V3.5H6V4ZM4.58941 5L5.28941 13.4H10.7106L11.4106 5H4.58941ZM6.5 6.5C6.77614 6.5 7 6.72386 7 7V11.5C7 11.7761 6.77614 12 6.5 12C6.22386 12 6 11.7761 6 11.5V7C6 6.72386 6.22386 6.5 6.5 6.5ZM9.5 6.5C9.77614 6.5 10 6.72386 10 7V11.5C10 11.7761 9.77614 12 9.5 12C9.22386 12 9 11.7761 9 11.5V7C9 6.72386 9.22386 6.5 9.5 6.5Z" fill="currentColor"/>
</svg>